<?xml version="1.0" encoding="UTF-8" standalone="no"?>
<!-- Created with Inkscape (http://www.inkscape.org/) -->

<svg
   width="1024"
   height="1024"
   viewBox="0 0 1024 1024"
   version="1.1"
   id="svg1"
   inkscape:version="1.3 (0e150ed6c4, 2023-07-21)"
   sodipodi:docname="anoMemeGlo.svg"
   xml:space="preserve"
   inkscape:export-filename="..\..\..\..\Unity Projects\ChilloutVR Stuffings\CVR_Stuffings\DiceGlow\Assets\Sprites\Memes\CSForbidden.svg"
   inkscape:export-xdpi="96"
   inkscape:export-ydpi="96"
   xmlns:inkscape="http://www.inkscape.org/namespaces/inkscape"
   xmlns:sodipodi="http://sodipodi.sourceforge.net/DTD/sodipodi-0.dtd"
   xmlns="http://www.w3.org/2000/svg"
   xmlns:svg="http://www.w3.org/2000/svg"
   xmlns:rdf="http://www.w3.org/1999/02/22-rdf-syntax-ns#"
   xmlns:cc="http://creativecommons.org/ns#"><sodipodi:namedview
     id="namedview1"
     pagecolor="#25472c"
     bordercolor="#000000"
     borderopacity="0.25"
     inkscape:showpageshadow="2"
     inkscape:pageopacity="0.0"
     inkscape:pagecheckerboard="0"
     inkscape:deskcolor="#050f3a"
     inkscape:document-units="mm"
     showgrid="true"
     inkscape:zoom="1.0877315"
     inkscape:cx="407.7293"
     inkscape:cy="377.39093"
     inkscape:window-width="2560"
     inkscape:window-height="1417"
     inkscape:window-x="-8"
     inkscape:window-y="-8"
     inkscape:window-maximized="1"
     inkscape:current-layer="layer1"><inkscape:grid
       id="grid1"
       units="px"
       originx="0"
       originy="0"
       spacingx="1"
       spacingy="1"
       empcolor="#0099e5"
       empopacity="0.30196078"
       color="#0099e5"
       opacity="0.14901961"
       empspacing="4"
       dotted="false"
       gridanglex="30"
       gridanglez="30"
       visible="true" /><inkscape:grid
       id="grid2"
       units="px"
       originx="0"
       originy="0"
       spacingx="1"
       spacingy="1"
       empcolor="#0099e5"
       empopacity="0.30196078"
       color="#0099e5"
       opacity="0.14901961"
       empspacing="256"
       dotted="false"
       gridanglex="30"
       gridanglez="30"
       visible="true" /><inkscape:grid
       id="grid3"
       units="px"
       originx="0"
       originy="0"
       spacingx="1"
       spacingy="1"
       empcolor="#0099e5"
       empopacity="0.30196078"
       color="#0099e5"
       opacity="0.14901961"
       empspacing="64"
       dotted="false"
       gridanglex="30"
       gridanglez="30"
       visible="true" /></sodipodi:namedview><defs
     id="defs1" /><g
     inkscape:label="c sharp forbidden"
     inkscape:groupmode="layer"
     id="layer1"><g
       id="g7"
       transform="matrix(10.750578,0,0,10.750578,3006.1342,1536.037)"><path
         style="fill:#ffffff;stroke-linecap:round;stroke-linejoin:bevel"
         d="m -256,-128 v 64 h 48 v -48 l -16,-16 z"
         id="path7" /><text
         xml:space="preserve"
         style="font-weight:bold;font-size:52.9128px;font-family:Ubuntu;-inkscape-font-specification:'Ubuntu Bold';text-align:center;text-anchor:middle;fill:#008000;stroke-width:0.826763;stroke-linecap:round;stroke-linejoin:bevel"
         x="-232"
         y="-76"
         id="text7"><tspan
           sodipodi:role="line"
           id="tspan7"
           x="-232"
           y="-76"
           style="fill:#008000;stroke-width:0.826763">#</tspan></text></g><g
       id="g10"
       transform="matrix(11.130435,0,0,11.130435,1580.5217,3005.2174)"><circle
         style="fill:none;stroke:#ff0000;stroke-width:5;stroke-linecap:round;stroke-linejoin:bevel;stroke-dasharray:none;stroke-opacity:1"
         id="circle9"
         cx="-96"
         cy="-224"
         r="32" /><path
         style="fill:none;stroke:#ff0000;stroke-width:5;stroke-linecap:round;stroke-linejoin:bevel;stroke-dasharray:none;stroke-opacity:1"
         d="m -120,-244 48,40"
         id="path10" /></g><text
       xml:space="preserve"
       style="font-weight:bold;font-size:93.0938px;font-family:Ubuntu;-inkscape-font-specification:'Ubuntu Bold';text-align:center;text-anchor:middle;fill:#ffffff;stroke:#000000;stroke-width:5;stroke-linecap:round;stroke-linejoin:bevel;stroke-dasharray:none;stroke-opacity:1"
       x="511.87924"
       y="126.52258"
       id="text10"><tspan
         sodipodi:role="line"
         id="tspan10"
         x="511.87924"
         y="126.52258"
         style="font-style:normal;font-variant:normal;font-weight:normal;font-stretch:normal;font-family:Impact;-inkscape-font-specification:Impact;stroke-width:5;stroke-dasharray:none">MonoBehaviour forbidden</tspan></text><text
       xml:space="preserve"
       style="font-weight:bold;font-size:93.0938px;font-family:Ubuntu;-inkscape-font-specification:'Ubuntu Bold';text-align:center;text-anchor:middle;fill:#ffffff;stroke:#000000;stroke-width:5;stroke-linecap:round;stroke-linejoin:bevel;stroke-dasharray:none;stroke-opacity:1"
       x="511.87924"
       y="969.97961"
       id="text11"><tspan
         sodipodi:role="line"
         id="tspan11"
         x="511.87924"
         y="969.97961"
         style="font-style:normal;font-variant:normal;font-weight:normal;font-stretch:normal;font-family:Impact;-inkscape-font-specification:Impact;stroke-width:5;stroke-dasharray:none">IMPIAN KANDAS</tspan></text><path
       style="fill:none;stroke:#0000ff;stroke-width:2;stroke-linecap:round;stroke-linejoin:bevel;stroke-dasharray:none;stroke-opacity:1"
       d="m 640,96 c 53.53649,-1.607937 106.23253,-13.697742 159.59195,-17.991029 27.27342,-2.194412 75.32233,-3.511081 104.01197,-2.600299 11.72749,0.372302 23.39497,1.844876 35.10403,2.600299 1.72994,0.111609 3.97481,-1.225793 5.2006,0 0.96907,0.969074 -2.57624,0.947029 -3.90045,1.30015 -5.17965,1.38124 -10.3658,2.751085 -15.60179,3.900448 -12.53582,2.751766 -25.05985,5.601855 -37.70434,7.800897 -60.20652,10.470704 -102.57546,13.435304 -169.01944,16.901944 -10.82851,0.56497 -21.68451,-0.57887 -32.50373,-1.30015 -2.20494,-0.147 -4.66206,-0.0744 -6.50075,-1.30015 -0.80632,-0.53754 1.68957,-0.96897 2.6003,-1.30015 3.8639,-1.40505 7.73128,-2.83158 11.70134,-3.90045 18.13978,-4.883784 34.45793,-7.762444 53.30613,-10.401193 48.47464,-6.78645 17.96003,-1.881598 61.10703,-5.200598 2.20332,-0.169486 4.29092,-1.30015 6.50075,-1.30015 0.96907,0 -1.66016,1.065115 -2.6003,1.30015 -7.75259,1.938148 -15.50101,4.007891 -23.40269,5.200598 -56.24238,8.489415 -37.72132,2.561527 -97.51122,9.101046 -10.48215,1.146486 -20.77276,3.655287 -31.20358,5.200597 -1.28612,0.19054 -5.06334,0.58145 -3.90045,0 22.54281,-11.271406 52.40343,-14.34348 76.70882,-16.901942 23.87389,-2.513042 61.51057,-4.037746 84.50972,-2.600299 1.93437,0.120898 -3.33316,2.081565 -5.2006,2.600299 -5.97873,1.660757 -12.11749,2.683528 -18.20209,3.900448 -34.20634,6.841268 -21.9498,4.414261 -58.50673,9.101044 -6.50504,0.83398 -13.07132,1.31412 -19.50224,2.6003 -0.42497,0.085 -0.30645,0.9937 0,1.30015 0.30644,0.30645 0.8704,0.056 1.30014,0 19.50958,-2.54473 38.89293,-6.252437 58.50673,-7.800896 29.83885,-2.355698 59.79683,-2.856954 89.71032,-3.900448 7.36304,-0.25685 14.74774,-0.432635 22.10254,0 0.43264,0.02545 0.42639,1.222623 0,1.300149 -38.89712,7.072205 -66.59956,5.068797 -110.51271,6.500745 -12.5689,0.40986 -25.13231,1.00082 -37.70433,1.30015 -5.63239,0.13411 -12.91812,3.98383 -16.90195,0 -3.19941,-3.19941 8.58207,-2.930327 13.0015,-3.900446 13.36597,-2.933994 26.78176,-5.705804 40.30463,-7.800897 55.00227,-8.521479 110.78286,-12.982648 166.41914,-9.101047 1.93345,0.134892 -3.29194,2.263477 -5.2006,2.600299 -10.45173,1.844423 -34.40192,1.484998 -42.90493,1.30015 -82.02634,-1.783182 17.22168,-1.30015 -71.50822,-1.30015 -13.0015,0 -26.00635,-0.295412 -39.00449,0 -6.08125,0.13821 -12.13274,0.895526 -18.20209,1.30015 -0.43243,0.02883 -1.73354,0 -1.30015,0 10.29988,0 -10.50302,0.254903 19.50224,-5.200598 17.95264,-3.264117 52.11021,-3.469961 67.60778,-3.900449 8.37,-0.2325 6.31228,2.462936 -2.6003,3.900449 -10.77308,1.737593 -21.61997,3.111769 -32.50374,3.900448 -73.53825,5.328858 -41.33677,0.717349 -115.71331,2.600299 -14.75577,0.373564 -29.44919,2.231402 -44.20508,2.600299 -2.63535,0.06588 -10.32285,-0.532599 -7.8009,-1.300149 49.62687,-15.10383 118.40993,-11.066687 162.51869,-11.701346 18.63859,-0.268181 37.32528,-0.186342 55.90643,1.30015 13.99183,1.119346 27.80867,3.913975 41.60478,6.500747 0.42596,0.07987 0.38763,1.106335 0,1.30015 -6.82839,3.414195 -18.36059,4.239651 -24.70284,5.200598 -8.66572,1.312989 -17.29701,2.888126 -26.00299,3.900448 -9.93846,1.155636 -20.03414,0.955417 -29.90344,2.600299 -35.48706,5.914506 -14.36493,3.145674 -32.50373,10.401196 -0.56906,0.22762 0.7187,-1.10633 1.30015,-1.30015 7.28547,-2.42849 14.56586,-5.02618 22.10254,-6.500747 22.36142,-4.37506 63.13234,-7.805448 84.50972,-9.101046 12.98489,-0.786963 25.99884,-1.017418 39.00448,-1.30015 6.93249,-0.150706 13.91576,-0.810192 20.80239,0 0.96244,0.113228 2.16692,2.166916 1.30015,2.600299 -25.99717,12.998584 -76.88595,11.362864 -94.91091,13.001494 -48.77881,4.43444 -24.80283,1.7502 -61.10703,7.8009 -3.65245,0.60874 6.76291,-3.21213 10.4012,-3.90045 12.04427,-2.27865 24.20709,-3.98089 36.40418,-5.2006 14.19031,-1.41903 63.88747,-3.900447 79.30912,-3.900447 5.65063,0 12.90635,-2.695445 16.90195,1.300147 2.90722,2.90723 -7.71267,2.90328 -11.70135,3.90045 -6.43155,1.60789 -12.92941,3.0356 -19.50224,3.90045 -26.8956,3.53889 -34.84345,2.6003 -62.40718,2.6003 -0.63685,0 -22.82836,1.52988 -29.90344,-1.30015 -4.49881,-1.79953 9.45775,-2.7199 14.30165,-2.6003 30.35542,0.74952 60.69819,2.11737 91.01046,3.90045 13.90504,0.81794 27.7979,2.05953 41.60479,3.90045 5.73133,0.76418 12.09098,0.69314 16.90194,3.90045 2.54981,1.69986 -6.04382,1.0893 -9.10104,1.30015 -9.52166,0.65666 -19.06469,1.62906 -28.60329,1.30015 -25.02618,-0.86298 -75.00113,-6.96703 -98.81137,-10.4012 -27.78554,-4.00753 -55.58321,-8.0134 -83.20957,-13.001496 -3.6439,-0.657928 -7.18624,-2.063332 -10.40119,-3.900449 -0.53214,-0.304081 0.7187,-1.106334 1.30015,-1.300149 4.68775,-1.562585 9.42336,-3.113629 14.30164,-3.900449 29.25442,-4.718455 60.15914,-4.513361 89.71032,-5.200598 8.23205,-0.191443 16.47633,-0.357674 24.70284,0 1.7852,0.07762 6.68738,0.308964 5.2006,1.30015 -2.5498,1.699868 -6.04335,1.096303 -9.10105,1.300149 -9.95513,0.663676 -19.9278,1.122013 -29.90344,1.30015 -44.81291,0.80023 -44.46044,-0.511166 -91.01046,-1.30015 -9.53306,-0.161577 -19.07713,0.396924 -28.60329,0 -0.96824,-0.04034 -3.43128,-0.801565 -2.6003,-1.300149 2.70545,-1.623274 5.9633,-2.270011 9.10104,-2.600299 29.85136,-3.142248 59.74025,-6.135894 89.71032,-7.800897 8.51952,-0.473307 75.99994,-1.654592 89.71032,5.200598 0.54819,0.274095 -0.73681,1.058717 -1.30015,1.300149 -5.54826,2.377827 -11.00599,5.206515 -16.90195,6.500748 -29.5387,6.484105 -52.56611,6.036453 -83.20956,6.500747 -18.63334,0.282324 -37.33533,1.547592 -55.90643,0 -0.61078,-0.0509 0.7015,-1.16874 1.30015,-1.300149 17.2675,-3.790428 34.50502,-7.90106 52.00598,-10.401196 12.89939,-1.842771 25.99278,-1.903244 39.00448,-2.600299 15.57395,-0.834319 31.62263,-3.760768 46.80538,1.300149 0.58145,0.193815 -0.7022,1.165611 -1.30014,1.30015 -16.83305,3.787436 -33.57486,8.345479 -50.70584,10.401196 -50.45888,6.055066 -103.51278,-2.66171 -153.41764,-9.101047 -8.69257,-1.121622 -17.40856,-2.181563 -26.00299,-3.900448 -0.42497,-0.08499 -0.40239,-1.139195 0,-1.30015 25.50501,-10.202005 34.4113,-9.201323 67.60778,-10.401196 39.21817,-1.417524 74.39145,-0.666304 113.113,5.200598 11.01652,1.669169 21.7627,4.837851 32.50374,7.800897 1.86836,0.51541 3.65008,1.43741 5.2006,2.600299 0.34671,0.26003 -0.34118,1.567396 0,1.30015 C 893.50149,83.257267 894.63419,81.50324 896,80"
       id="path11" /><text
       xml:space="preserve"
       style="font-style:normal;font-variant:normal;font-weight:normal;font-stretch:normal;font-size:64px;font-family:Impact;-inkscape-font-specification:Impact;text-align:center;text-anchor:middle;fill:#ffffff;stroke:#000000;stroke-width:5;stroke-linecap:round;stroke-linejoin:bevel;stroke-dasharray:none;stroke-opacity:1"
       x="806.95648"
       y="183.32108"
       id="text12"><tspan
         sodipodi:role="line"
         id="tspan12"
         x="806.95648"
         y="183.32108">UNSUPPORTED</tspan></text><text
       xml:space="preserve"
       style="font-style:normal;font-variant:normal;font-weight:normal;font-stretch:normal;font-size:64px;font-family:Impact;-inkscape-font-specification:Impact;text-align:center;text-anchor:middle;fill:#ffffff;stroke:#000000;stroke-width:5;stroke-linecap:round;stroke-linejoin:bevel;stroke-dasharray:none;stroke-opacity:1"
       x="806.95648"
       y="225.23941"
       id="text13"><tspan
         sodipodi:role="line"
         id="tspan13"
         x="806.95648"
         y="225.23941">atm</tspan></text><text
       xml:space="preserve"
       style="font-style:normal;font-variant:normal;font-weight:normal;font-stretch:normal;font-size:23.3574px;font-family:Impact;-inkscape-font-specification:Impact;text-align:center;text-anchor:middle;fill:#ffffff;stroke:#000000;stroke-width:0.364959;stroke-linecap:round;stroke-linejoin:bevel;stroke-dasharray:none;stroke-opacity:1"
       x="513.65259"
       y="816"
       id="text14"><tspan
         sodipodi:role="line"
         id="tspan14"
         x="513.65259"
         y="816"
         style="font-style:normal;font-variant:normal;font-weight:normal;font-stretch:normal;font-family:Ubuntu;-inkscape-font-specification:Ubuntu;stroke-width:0.364959;stroke-dasharray:none">by JOELwindows7</tspan><tspan
         sodipodi:role="line"
         x="513.65259"
         y="846.79883"
         id="tspan15"
         style="font-style:normal;font-variant:normal;font-weight:normal;font-stretch:normal;font-family:Ubuntu;-inkscape-font-specification:Ubuntu;stroke-width:0.364959;stroke-dasharray:none">Perkedel Technologies</tspan><tspan
         sodipodi:role="line"
         x="513.65259"
         y="877.59766"
         id="tspan16"
         style="font-style:normal;font-variant:normal;font-weight:normal;font-stretch:normal;font-family:Ubuntu;-inkscape-font-specification:Ubuntu;stroke-width:0.364959;stroke-dasharray:none">CC4.0-BY-SA</tspan></text></g><metadata
     id="metadata1"><rdf:RDF><cc:Work
         rdf:about=""><cc:license
           rdf:resource="http://creativecommons.org/licenses/by-sa/4.0/" /></cc:Work><cc:License
         rdf:about="http://creativecommons.org/licenses/by-sa/4.0/"><cc:permits
           rdf:resource="http://creativecommons.org/ns#Reproduction" /><cc:permits
           rdf:resource="http://creativecommons.org/ns#Distribution" /><cc:requires
           rdf:resource="http://creativecommons.org/ns#Notice" /><cc:requires
           rdf:resource="http://creativecommons.org/ns#Attribution" /><cc:permits
           rdf:resource="http://creativecommons.org/ns#DerivativeWorks" /><cc:requires
           rdf:resource="http://creativecommons.org/ns#ShareAlike" /></cc:License></rdf:RDF></metadata></svg>
