 <svg  version="1.0" xmlns="http://www.w3.org/2000/svg"  width="900.000000pt" height="426.000000pt" viewBox="0 0 900.000000 426.000000"  preserveAspectRatio="xMidYMid meet">  <g transform="translate(0.000000,426.000000) scale(0.100000,-0.100000)" fill="#000000" stroke="none"> <path d="M0 2130 l0 -2130 4500 0 4500 0 0 2130 0 2130 -4500 0 -4500 0 0 -2130z m4565 1950 c146 -12 298 -33 395 -55 36 -9 74 -15 84 -15 11 0 42 -6 70 -14 28 -8 80 -22 116 -31 36 -10 83 -23 105 -30 22 -7 67 -20 100 -30 61 -18 97 -30 173 -59 23 -9 59 -22 80 -30 71 -27 217 -89 292 -123 41 -20 84 -39 95 -44 11 -5 28 -13 38 -19 27 -15 46 -26 132 -70 44 -23 94 -50 110 -61 17 -10 39 -23 50 -29 11 -6 34 -19 50 -30 17 -11 37 -23 45 -27 8 -4 34 -20 56 -35 23 -15 47 -28 53 -28 6 0 11 -7 11 -15 0 -12 -20 -15 -116 -15 -134 0 -148 -5 -236 -88 -31 -30 -61 -51 -67 -48 -6 4 -11 26 -11 49 0 66 -21 87 -83 87 -67 0 -135 -38 -206 -115 -72 -80 -81 -106 -81 -241 0 -71 -4 -115 -11 -120 -6 -3 -36 18 -67 49 -53 51 -131 97 -166 97 -8 0 -18 5 -21 11 -4 5 -17 14 -28 19 -12 6 -49 25 -82 44 -33 19 -81 45 -107 58 -26 13 -80 55 -120 93 -103 98 -118 105 -244 105 -63 0 -118 5 -141 14 -73 26 -233 69 -333 90 -209 42 -257 46 -494 46 -234 0 -273 -4 -421 -41 -95 -24 -169 -50 -238 -84 -45 -23 -57 -24 -259 -25 -161 -1 -213 1 -217 11 -3 11 13 51 40 99 4 8 18 33 29 54 60 110 194 249 321 332 99 65 263 146 334 164 17 5 44 13 60 19 219 75 583 107 910 81z m-1931 -816 c20 -8 21 -51 2 -95 -16 -38 -114 -135 -163 -162 -28 -16 -81 -17 -632 -17 -474 0 -601 -3 -602 -12 0 -7 0 -66 0 -131 1 -138 13 -174 74 -218 l40 -29 633 0 c348 0 639 -3 648 -6 20 -8 21 -51 1 -98 -20 -48 -113 -142 -159 -161 -30 -13 -131 -15 -673 -15 -624 0 -638 0 -680 21 -49 24 -128 107 -149 157 -19 47 -21 757 -1 765 18 8 1642 8 1661 1z m1626 -34 c55 -43 97 -91 122 -136 16 -30 18 -61 18 -299 0 -238 -2 -269 -18 -299 -25 -45 -67 -93 -122 -136 l-44 -35 -667 0 -666 0 -46 38 c-25 21 -63 59 -84 84 l-38 46 -3 276 c-2 152 0 291 3 310 8 40 138 177 176 184 13 2 317 4 674 3 l651 -1 44 -35z m854 15 c16 -11 87 -78 158 -148 71 -71 145 -138 165 -148 27 -14 59 -19 110 -19 52 0 82 -5 101 -17 47 -30 126 -116 145 -157 17 -39 17 -41 -1 -66 l-19 -25 -202 -3 -202 -2 -107 103 c-59 56 -138 131 -176 165 l-69 62 -86 0 c-88 0 -108 -7 -150 -50 -50 -50 -51 -53 -53 -342 l-3 -273 -32 -3 c-59 -6 -148 56 -211 145 -22 32 -22 38 -22 327 l0 295 30 45 c17 25 47 59 67 75 74 61 78 62 313 59 195 -3 218 -5 244 -23z m1024 -358 c3 -431 11 -390 -96 -493 -39 -38 -75 -64 -94 -68 -17 -3 -87 -6 -157 -6 -148 0 -176 10 -254 93 -73 77 -98 155 -58 177 11 5 77 10 148 10 l128 0 38 31 c69 57 77 85 77 282 l0 174 29 39 c69 93 144 146 201 142 l35 -3 3 -378z m1619 339 c58 -44 117 -118 127 -158 3 -15 2 -38 -4 -52 l-10 -26 -649 0 c-633 0 -651 -1 -661 -19 -16 -30 -13 -36 28 -63 47 -32 78 -62 120 -114 25 -34 32 -51 32 -88 l0 -46 -178 0 c-197 0 -190 -2 -271 74 -81 77 -91 101 -91 225 0 130 13 163 91 236 85 79 36 75 765 72 l650 -2 51 -39z m-864 -295 c-3 -11 -19 -33 -37 -49 -18 -16 -42 -42 -53 -58 l-22 -29 -65 65 c-36 35 -66 70 -66 77 0 10 30 13 124 13 118 0 124 -1 119 -19z m835 -18 c44 -28 142 -134 150 -162 4 -14 7 -76 7 -137 l0 -110 -39 -51 c-21 -28 -61 -68 -89 -89 l-51 -39 -640 -3 c-436 -2 -653 0 -678 8 -48 14 -141 99 -168 154 -13 25 -20 56 -18 77 l3 34 684 3 c620 2 686 4 703 19 46 42 39 43 -384 45 l-403 3 -3 29 c-2 16 5 45 15 65 21 42 112 141 129 141 6 0 17 7 24 15 11 13 65 15 372 15 322 0 361 -2 386 -17z m-1475 -202 c49 -52 49 -71 -3 -71 -44 0 -60 18 -60 68 0 54 14 54 63 3z m929 -447 c7 -6 -91 -104 -104 -104 -4 0 -8 25 -8 55 l0 55 53 0 c30 0 56 -3 59 -6z m-5412 -29 c23 -27 -6 -97 -67 -165 -82 -90 -84 -91 -393 -93 l-265 -2 -5 -240 c-6 -278 -3 -270 -105 -363 -49 -45 -76 -62 -106 -67 -71 -12 -69 -22 -69 340 l0 323 -25 6 c-14 4 -160 6 -325 6 -165 -1 -305 2 -310 5 -14 9 -12 57 4 96 17 39 107 131 151 153 26 14 121 16 766 16 644 0 738 -2 749 -15z m1583 1 c39 -16 130 -108 157 -158 16 -30 20 -57 20 -133 0 -113 -13 -145 -92 -221 -95 -91 -46 -84 -551 -84 -407 0 -452 2 -480 17 -40 22 -137 113 -137 129 0 6 -7 17 -15 24 -9 8 -15 30 -15 56 l0 44 488 0 c366 0 491 3 500 12 19 19 14 45 -10 52 -13 3 -262 6 -554 6 -467 0 -533 -2 -544 -15 -10 -13 -12 -83 -7 -331 l6 -315 -25 -11 c-43 -20 -100 6 -171 77 -34 34 -67 75 -73 90 -11 29 -14 757 -3 768 3 4 336 7 740 7 597 0 740 -3 766 -14z m329 5 c29 -11 138 -118 161 -158 14 -26 17 -58 17 -203 0 -204 10 -233 97 -282 28 -16 70 -18 475 -18 l443 1 39 27 c22 15 50 47 63 71 22 42 23 54 25 305 3 290 -1 275 72 262 38 -7 137 -92 172 -147 24 -38 24 -40 24 -322 l0 -284 -31 -44 c-45 -63 -118 -128 -159 -139 -39 -11 -1246 -14 -1301 -3 -25 4 -56 28 -111 84 l-78 78 -2 373 c-2 205 -1 381 1 391 4 19 53 24 93 8z m3324 -3 c12 -19 5 -81 -13 -108 -26 -40 -115 -124 -146 -138 -21 -9 -174 -12 -615 -12 -323 0 -597 -3 -609 -6 -22 -6 -23 -10 -23 -129 0 -108 3 -127 23 -166 13 -24 41 -56 63 -71 l39 -27 640 -3 640 -3 3 -43 c4 -54 -19 -93 -99 -166 -41 -37 -71 -55 -97 -60 -65 -10 -1254 -7 -1294 4 -46 13 -139 97 -167 150 -20 39 -21 55 -21 409 0 202 3 371 7 374 3 4 379 7 834 7 638 0 830 -3 835 -12z m1752 -17 c8 -53 -8 -88 -70 -150 -93 -95 -80 -92 -386 -94 l-267 -2 -5 -240 c-6 -278 -4 -270 -106 -363 -49 -45 -74 -61 -105 -66 -71 -11 -69 -22 -69 339 l0 323 -22 6 c-13 3 -164 6 -335 6 l-313 0 0 34 c0 18 6 49 14 67 17 40 120 144 156 158 16 6 296 9 765 8 l740 -2 3 -24z m-1725 -193 c-8 -97 -24 -92 344 -98 l318 -5 3 -320 c2 -318 2 -320 25 -337 52 -40 165 -9 236 66 36 38 61 46 61 21 0 -55 -23 -230 -36 -275 -84 -287 -238 -479 -519 -647 -71 -42 -207 -99 -305 -126 -30 -9 -80 -23 -111 -31 -63 -18 -109 -21 -109 -7 0 5 27 35 60 66 70 68 100 120 100 178 0 53 7 63 49 72 43 9 173 131 200 189 28 57 28 123 -1 153 -20 21 -29 23 -135 23 l-113 0 0 143 c0 176 -5 187 -86 187 -34 0 -69 -7 -92 -19 -45 -23 -168 -148 -182 -185 -5 -15 -10 -81 -10 -147 0 -142 -7 -148 -85 -69 -54 55 -112 90 -150 90 -25 0 -46 21 -27 28 26 8 129 165 161 245 10 27 12 27 100 27 74 0 98 4 133 22 55 29 157 131 186 186 28 54 29 115 2 142 -18 18 -33 20 -186 20 -92 0 -174 4 -184 10 -11 6 -21 25 -25 48 -7 46 -32 137 -51 180 -30 69 -29 70 119 74 149 3 148 3 247 101 30 31 58 53 61 51 3 -2 4 -27 2 -56z m-3665 -472 c45 -29 121 -109 145 -153 20 -36 22 -74 5 -91 -16 -16 -695 -17 -750 -1 -75 20 -198 161 -198 225 0 43 7 44 392 44 l368 0 38 -24z m547 -331 c23 -19 27 -27 18 -36 -10 -10 -21 -6 -52 16 -23 15 -38 31 -35 36 9 16 38 9 69 -16z m-2021 0 c45 -19 166 -133 166 -157 0 -9 5 -20 10 -23 15 -9 13 -546 -2 -582 -16 -37 -72 -100 -123 -139 -45 -35 -88 -46 -122 -33 l-23 9 0 299 c0 298 -5 351 -34 351 -47 0 -196 122 -217 178 -13 33 -11 86 3 100 19 19 295 16 342 -3z m1744 2 c49 -18 129 -92 162 -150 l30 -52 0 -264 c0 -311 0 -313 -107 -411 l-66 -60 -672 0 -672 0 -39 28 c-51 37 -103 97 -120 138 -20 48 -20 560 0 608 20 48 97 124 153 152 l48 23 625 0 c455 0 634 -4 658 -12z m1735 1 c45 -14 138 -93 173 -150 22 -34 24 -48 24 -157 0 -93 -3 -121 -15 -131 -8 -7 -15 -17 -15 -23 0 -15 -99 -109 -137 -129 -31 -17 -75 -18 -616 -18 l-584 0 -23 -25 c-18 -19 -20 -26 -9 -30 8 -3 325 -6 704 -8 l690 -2 3 -39 c4 -43 -19 -84 -86 -153 -77 -79 -3 -73 -836 -73 -412 0 -751 1 -753 4 -3 2 -4 98 -3 212 1 240 0 236 101 328 41 37 71 55 97 60 20 3 294 6 607 6 431 0 574 3 583 12 38 38 36 38 -685 40 l-698 3 -3 47 c-2 36 3 56 22 86 34 54 117 124 163 139 55 17 1240 18 1296 1z m527 -93 c6 -121 31 -177 95 -212 38 -20 54 -21 265 -22 124 -1 241 -6 261 -11 42 -12 119 -76 161 -134 22 -30 28 -50 28 -88 l0 -48 -438 0 c-496 0 -470 -4 -558 84 -73 73 -84 103 -84 223 0 124 14 157 99 236 57 52 106 77 146 74 18 -2 20 -11 25 -102z m1138 93 c8 -8 12 -57 12 -154 0 -78 3 -149 6 -158 5 -13 26 -16 125 -16 136 0 143 -4 129 -77 -8 -46 -15 -58 -75 -116 -54 -54 -106 -85 -146 -89 l-34 -3 -5 -76 c-6 -81 -18 -105 -86 -173 -65 -64 -90 -77 -141 -74 l-48 3 -3 363 -2 364 27 50 c57 104 200 197 241 156z m-1328 -583 c65 -67 51 -65 542 -65 261 0 449 -4 458 -10 12 -7 16 -41 20 -157 3 -81 8 -154 10 -162 4 -11 -9 -17 -50 -24 -69 -11 -529 0 -590 14 -25 6 -76 14 -115 19 -149 18 -435 86 -435 103 0 4 9 18 21 30 30 32 49 83 49 132 0 56 -33 85 -96 85 -50 0 -55 12 -22 47 19 20 31 23 98 23 74 0 77 -1 110 -35z"/> <path d="M3041 2942 c-48 -48 -61 -80 -61 -147 0 -67 13 -99 61 -147 l48 -48 456 0 c414 0 458 2 483 17 43 27 72 57 72 74 0 8 6 21 13 28 7 7 12 38 12 76 0 38 -5 69 -12 77 -7 6 -13 19 -13 27 0 17 -29 47 -72 74 -25 15 -69 17 -483 17 l-456 0 -48 -48z"/> <path d="M2493 929 c-54 -35 -73 -79 -73 -172 0 -71 3 -87 24 -118 14 -20 43 -46 66 -58 40 -20 51 -21 476 -21 390 0 437 2 462 17 75 46 102 94 102 177 0 77 -21 126 -70 164 l-42 32 -456 0 c-443 0 -458 -1 -489 -21z m668 -39 c42 -12 119 -76 161 -134 22 -30 28 -50 28 -88 l0 -48 -305 0 c-276 0 -308 2 -339 18 -44 24 -124 104 -148 148 -21 39 -24 100 -5 107 24 10 572 7 608 -3z"/> </g> </svg> 